<?xml version="1.0" standalone="no"?><!-- Generator: Gravit.io --><svg xmlns="http://www.w3.org/2000/svg" xmlns:xlink="http://www.w3.org/1999/xlink" style="isolation:isolate" viewBox="0 0 800 800" width="800" height="800"><defs><clipPath id="_clipPath_3hHvSLrDlDurxrfM2bJTp7uT41vrdr8y"><rect width="800" height="800"/></clipPath></defs><g clip-path="url(#_clipPath_3hHvSLrDlDurxrfM2bJTp7uT41vrdr8y)"><rect width="800" height="800" style="fill:rgb(0,0,0)" fill-opacity="0"/><g><path d=" M 244.922 667.968 L 368.27 739.997 C 384.9 749.708 411.973 749.829 428.689 740.268 L 553.479 668.887 L 678.269 597.507 L 678.269 597.507 C 694.985 587.945 708.627 564.548 708.713 545.29 L 709.356 401.386 L 710 257.482 C 710.086 238.224 696.654 214.706 680.024 204.995 L 555.877 132.499 L 431.73 60.003 C 415.1 50.292 388.027 50.17 371.311 59.732 L 246.521 131.113 L 121.731 202.493 C 105.015 212.055 91.373 235.452 91.287 254.71 L 90.644 398.614 L 90 542.518 C 89.914 561.775 103.346 585.294 119.976 595.005 L 167.383 622.689 L 167.383 447.437 L 167.766 447.437 L 167.983 398.96 L 168.496 284.248 C 168.544 273.549 176.122 260.551 185.409 255.238 L 284.891 198.334 L 384.373 141.43 C 393.659 136.118 408.7 136.186 417.939 141.581 L 516.908 199.374 L 615.877 257.167 C 625.116 262.562 632.578 275.628 632.53 286.327 L 632.017 401.04 L 631.504 515.752 C 631.456 526.451 623.878 539.449 614.591 544.761 L 614.591 544.761 L 515.109 601.665 L 415.627 658.569 C 406.341 663.882 391.3 663.814 382.061 658.419 L 283.092 600.626 L 244.922 578.337 L 244.922 667.968 Z " fill="rgb(255,255,255)"/><path d=" M 399.327 224.967 C 403.472 224.743 407.76 225.556 410.925 227.4 L 477.975 266.471 L 545.025 305.543 C 550.615 308.8 555.128 316.699 555.097 323.17 L 554.713 400.773 L 554.33 478.376 C 554.314 481.717 553.083 485.429 551.122 488.68 L 514.234 467.184 L 405.164 403.627 C 401.466 401.472 398.482 396.248 398.503 391.969 L 399.126 265.732 L 399.327 224.967 Z " fill="rgb(255,255,255)"/><path d=" M 321.719 266.681 L 255.733 304.386 C 250.114 307.596 245.527 315.456 245.495 321.927 L 245.112 399.53 L 244.729 477.133 C 244.697 483.604 249.21 491.502 254.801 494.76 L 321.851 533.831 L 388.901 572.903 C 394.492 576.161 403.592 576.199 409.21 572.989 L 476.292 534.659 L 475.203 534.024 L 330.893 449.931 C 325.346 446.699 320.869 438.864 320.901 432.445 L 321.719 266.681 Z " fill="rgb(255,255,255)"/></g></g></svg>